<mxfile host="65bd71144e">
    <diagram id="w3d0ppWCed2p-HDZ2Jk9" name="PÃ¡gina-1">
        <mxGraphModel dx="2235" dy="1798" grid="1" gridSize="10" guides="1" tooltips="1" connect="1" arrows="1" fold="1" page="1" pageScale="1" pageWidth="1200" pageHeight="800" math="0" shadow="0">
            <root>
                <mxCell id="0"/>
                <mxCell id="1" parent="0"/>
                <mxCell id="uBAcjajxYX5B5QDxeFIi-4" value="" style="html=1;align=center;verticalAlign=top;rounded=1;absoluteArcSize=1;arcSize=20;" vertex="1" parent="1">
                    <mxGeometry x="150" y="-166" width="935" height="1096" as="geometry"/>
                </mxCell>
                <mxCell id="Gcev7W_Unmqta7dmFVkb-4" value="Estudiante" style="shape=umlActor;verticalLabelPosition=bottom;verticalAlign=top;html=1;" vertex="1" parent="1">
                    <mxGeometry x="90" y="80" width="30" height="60" as="geometry"/>
                </mxCell>
                <mxCell id="Gcev7W_Unmqta7dmFVkb-5" value="Profesor" style="shape=umlActor;verticalLabelPosition=bottom;verticalAlign=top;html=1;" vertex="1" parent="1">
                    <mxGeometry x="90" y="340" width="30" height="60" as="geometry"/>
                </mxCell>
                <mxCell id="Gcev7W_Unmqta7dmFVkb-6" value="Administrador" style="shape=umlActor;verticalLabelPosition=bottom;verticalAlign=top;html=1;" vertex="1" parent="1">
                    <mxGeometry x="70" y="685" width="30" height="60" as="geometry"/>
                </mxCell>
                <mxCell id="Gcev7W_Unmqta7dmFVkb-8" value="Login" style="ellipse;whiteSpace=wrap;html=1;" vertex="1" parent="1">
                    <mxGeometry x="190" y="190" width="140" height="70" as="geometry"/>
                </mxCell>
                <mxCell id="Gcev7W_Unmqta7dmFVkb-9" value="Login" style="ellipse;whiteSpace=wrap;html=1;" vertex="1" parent="1">
                    <mxGeometry x="210" y="680" width="140" height="70" as="geometry"/>
                </mxCell>
                <mxCell id="Gcev7W_Unmqta7dmFVkb-10" value="Curso" style="ellipse;whiteSpace=wrap;html=1;" vertex="1" parent="1">
                    <mxGeometry x="850" y="-16" width="140" height="70" as="geometry"/>
                </mxCell>
                <mxCell id="Gcev7W_Unmqta7dmFVkb-11" value="Administrador" style="ellipse;whiteSpace=wrap;html=1;" vertex="1" parent="1">
                    <mxGeometry x="480" y="680" width="140" height="70" as="geometry"/>
                </mxCell>
                <mxCell id="Gcev7W_Unmqta7dmFVkb-12" value="Profesor" style="ellipse;whiteSpace=wrap;html=1;" vertex="1" parent="1">
                    <mxGeometry x="240" y="390" width="140" height="70" as="geometry"/>
                </mxCell>
                <mxCell id="Gcev7W_Unmqta7dmFVkb-13" value="Estudiante" style="ellipse;whiteSpace=wrap;html=1;" vertex="1" parent="1">
                    <mxGeometry x="335" y="-136" width="140" height="70" as="geometry"/>
                </mxCell>
                <mxCell id="Gcev7W_Unmqta7dmFVkb-17" value="" style="endArrow=open;endFill=1;endSize=12;html=1;exitX=0.5;exitY=0.5;exitDx=0;exitDy=0;exitPerimeter=0;entryX=0;entryY=1;entryDx=0;entryDy=0;" edge="1" parent="1" source="Gcev7W_Unmqta7dmFVkb-5" target="Gcev7W_Unmqta7dmFVkb-8">
                    <mxGeometry width="160" relative="1" as="geometry">
                        <mxPoint x="130" y="369.5" as="sourcePoint"/>
                        <mxPoint x="235" y="369.5" as="targetPoint"/>
                    </mxGeometry>
                </mxCell>
                <mxCell id="Gcev7W_Unmqta7dmFVkb-18" value="" style="endArrow=open;endFill=1;endSize=12;html=1;exitX=0.5;exitY=0.5;exitDx=0;exitDy=0;exitPerimeter=0;entryX=0;entryY=0;entryDx=0;entryDy=0;" edge="1" parent="1" source="Gcev7W_Unmqta7dmFVkb-4" target="Gcev7W_Unmqta7dmFVkb-8">
                    <mxGeometry width="160" relative="1" as="geometry">
                        <mxPoint x="115" y="380" as="sourcePoint"/>
                        <mxPoint x="243.49849933821838" y="274.86486417782135" as="targetPoint"/>
                    </mxGeometry>
                </mxCell>
                <mxCell id="Gcev7W_Unmqta7dmFVkb-19" value="" style="endArrow=open;endFill=1;endSize=12;html=1;entryX=0;entryY=0.5;entryDx=0;entryDy=0;dashed=1;exitX=0.5;exitY=0;exitDx=0;exitDy=0;" edge="1" parent="1" source="Gcev7W_Unmqta7dmFVkb-8" target="Gcev7W_Unmqta7dmFVkb-13">
                    <mxGeometry width="160" relative="1" as="geometry">
                        <mxPoint x="255" y="34" as="sourcePoint"/>
                        <mxPoint x="420.5025253169417" y="144.25126265847075" as="targetPoint"/>
                        <Array as="points">
                            <mxPoint x="255" y="-101"/>
                        </Array>
                    </mxGeometry>
                </mxCell>
                <mxCell id="Gcev7W_Unmqta7dmFVkb-20" value="" style="endArrow=open;endFill=1;endSize=12;html=1;entryX=0;entryY=0;entryDx=0;entryDy=0;dashed=1;exitX=0.5;exitY=1;exitDx=0;exitDy=0;" edge="1" parent="1" source="Gcev7W_Unmqta7dmFVkb-8" target="Gcev7W_Unmqta7dmFVkb-12">
                    <mxGeometry width="160" relative="1" as="geometry">
                        <mxPoint x="350" y="245" as="sourcePoint"/>
                        <mxPoint x="424.87146444837913" y="147.6670962171072" as="targetPoint"/>
                    </mxGeometry>
                </mxCell>
                <mxCell id="Gcev7W_Unmqta7dmFVkb-21" value="" style="endArrow=open;endFill=1;endSize=12;html=1;entryX=0;entryY=0.5;entryDx=0;entryDy=0;exitX=1;exitY=0.5;exitDx=0;exitDy=0;dashed=1;" edge="1" parent="1" source="Gcev7W_Unmqta7dmFVkb-13" target="Gcev7W_Unmqta7dmFVkb-10">
                    <mxGeometry width="160" relative="1" as="geometry">
                        <mxPoint x="300.12853555162087" y="56.33290378289303" as="sourcePoint"/>
                        <mxPoint x="375" y="-41" as="targetPoint"/>
                    </mxGeometry>
                </mxCell>
                <mxCell id="Gcev7W_Unmqta7dmFVkb-23" value="" style="endArrow=open;endFill=1;endSize=12;html=1;exitX=1;exitY=0.5;exitDx=0;exitDy=0;dashed=1;entryX=0;entryY=0.5;entryDx=0;entryDy=0;" edge="1" parent="1" source="Gcev7W_Unmqta7dmFVkb-9" target="Gcev7W_Unmqta7dmFVkb-11">
                    <mxGeometry width="160" relative="1" as="geometry">
                        <mxPoint x="330" y="705" as="sourcePoint"/>
                        <mxPoint x="435" y="705" as="targetPoint"/>
                    </mxGeometry>
                </mxCell>
                <mxCell id="Gcev7W_Unmqta7dmFVkb-24" value="" style="endArrow=open;endFill=1;endSize=12;html=1;exitX=0.5;exitY=0.5;exitDx=0;exitDy=0;exitPerimeter=0;entryX=0;entryY=0.5;entryDx=0;entryDy=0;" edge="1" parent="1" source="Gcev7W_Unmqta7dmFVkb-6" target="Gcev7W_Unmqta7dmFVkb-9">
                    <mxGeometry width="160" relative="1" as="geometry">
                        <mxPoint x="130" y="665.25" as="sourcePoint"/>
                        <mxPoint x="245.50252531694173" y="554.9987373415292" as="targetPoint"/>
                    </mxGeometry>
                </mxCell>
                <mxCell id="Gcev7W_Unmqta7dmFVkb-25" value="" style="endArrow=open;endFill=1;endSize=12;html=1;exitX=1;exitY=0;exitDx=0;exitDy=0;entryX=0.023;entryY=0.743;entryDx=0;entryDy=0;dashed=1;entryPerimeter=0;" edge="1" parent="1" source="Gcev7W_Unmqta7dmFVkb-12" target="Gcev7W_Unmqta7dmFVkb-10">
                    <mxGeometry width="160" relative="1" as="geometry">
                        <mxPoint x="440.44000000000005" y="299.9999999999999" as="sourcePoint"/>
                        <mxPoint x="439.5025253169417" y="420.88126265847075" as="targetPoint"/>
                    </mxGeometry>
                </mxCell>
                <mxCell id="Gcev7W_Unmqta7dmFVkb-26" value="Crear Profesores" style="ellipse;whiteSpace=wrap;html=1;" vertex="1" parent="1">
                    <mxGeometry x="450" y="830" width="140" height="70" as="geometry"/>
                </mxCell>
                <mxCell id="Gcev7W_Unmqta7dmFVkb-27" value="Crear Estudiantes" style="ellipse;whiteSpace=wrap;html=1;" vertex="1" parent="1">
                    <mxGeometry x="620" y="810" width="140" height="70" as="geometry"/>
                </mxCell>
                <mxCell id="Gcev7W_Unmqta7dmFVkb-28" value="Crear Cursos" style="ellipse;whiteSpace=wrap;html=1;" vertex="1" parent="1">
                    <mxGeometry x="855" y="675" width="140" height="70" as="geometry"/>
                </mxCell>
                <mxCell id="Gcev7W_Unmqta7dmFVkb-29" value="" style="endArrow=open;endFill=1;endSize=12;html=1;dashed=1;entryX=0.5;entryY=1;entryDx=0;entryDy=0;" edge="1" parent="1" source="Gcev7W_Unmqta7dmFVkb-28" target="Gcev7W_Unmqta7dmFVkb-39">
                    <mxGeometry width="160" relative="1" as="geometry">
                        <mxPoint x="765" y="710" as="sourcePoint"/>
                        <mxPoint x="635" y="715" as="targetPoint"/>
                    </mxGeometry>
                </mxCell>
                <mxCell id="Gcev7W_Unmqta7dmFVkb-30" value="" style="endArrow=open;endFill=1;endSize=12;html=1;dashed=1;entryX=0.564;entryY=1.03;entryDx=0;entryDy=0;entryPerimeter=0;exitX=0.5;exitY=0;exitDx=0;exitDy=0;" edge="1" parent="1" source="Gcev7W_Unmqta7dmFVkb-39" target="Gcev7W_Unmqta7dmFVkb-10">
                    <mxGeometry width="160" relative="1" as="geometry">
                        <mxPoint x="925" y="540" as="sourcePoint"/>
                        <mxPoint x="865" y="720" as="targetPoint"/>
                    </mxGeometry>
                </mxCell>
                <mxCell id="Gcev7W_Unmqta7dmFVkb-33" value="" style="endArrow=open;endFill=1;endSize=12;html=1;dashed=1;exitX=0.5;exitY=1;exitDx=0;exitDy=0;" edge="1" parent="1" source="Gcev7W_Unmqta7dmFVkb-11">
                    <mxGeometry width="160" relative="1" as="geometry">
                        <mxPoint x="630" y="730" as="sourcePoint"/>
                        <mxPoint x="530" y="830" as="targetPoint"/>
                    </mxGeometry>
                </mxCell>
                <mxCell id="Gcev7W_Unmqta7dmFVkb-34" value="" style="endArrow=open;endFill=1;endSize=12;html=1;dashed=1;exitX=1;exitY=1;exitDx=0;exitDy=0;" edge="1" parent="1" source="Gcev7W_Unmqta7dmFVkb-11" target="Gcev7W_Unmqta7dmFVkb-27">
                    <mxGeometry width="160" relative="1" as="geometry">
                        <mxPoint x="560" y="690" as="sourcePoint"/>
                        <mxPoint x="460" y="650" as="targetPoint"/>
                    </mxGeometry>
                </mxCell>
                <mxCell id="Gcev7W_Unmqta7dmFVkb-35" value="Calificaciones" style="ellipse;whiteSpace=wrap;html=1;" vertex="1" parent="1">
                    <mxGeometry x="625" y="-136" width="140" height="70" as="geometry"/>
                </mxCell>
                <mxCell id="Gcev7W_Unmqta7dmFVkb-36" value="" style="endArrow=open;endFill=1;endSize=12;html=1;entryX=0;entryY=0.5;entryDx=0;entryDy=0;exitX=1;exitY=0.5;exitDx=0;exitDy=0;dashed=1;" edge="1" parent="1" source="Gcev7W_Unmqta7dmFVkb-13" target="Gcev7W_Unmqta7dmFVkb-35">
                    <mxGeometry width="160" relative="1" as="geometry">
                        <mxPoint x="485" y="-91" as="sourcePoint"/>
                        <mxPoint x="705" y="69" as="targetPoint"/>
                    </mxGeometry>
                </mxCell>
                <mxCell id="Gcev7W_Unmqta7dmFVkb-37" value="" style="endArrow=open;endFill=1;endSize=12;html=1;entryX=0.05;entryY=0.745;entryDx=0;entryDy=0;exitX=1;exitY=0;exitDx=0;exitDy=0;dashed=1;entryPerimeter=0;" edge="1" parent="1" source="Gcev7W_Unmqta7dmFVkb-12" target="Gcev7W_Unmqta7dmFVkb-35">
                    <mxGeometry width="160" relative="1" as="geometry">
                        <mxPoint x="490" y="65" as="sourcePoint"/>
                        <mxPoint x="710" y="75" as="targetPoint"/>
                    </mxGeometry>
                </mxCell>
                <mxCell id="Gcev7W_Unmqta7dmFVkb-39" value="Asignar Cursos" style="ellipse;whiteSpace=wrap;html=1;" vertex="1" parent="1">
                    <mxGeometry x="855" y="480" width="140" height="70" as="geometry"/>
                </mxCell>
                <mxCell id="Gcev7W_Unmqta7dmFVkb-40" value="" style="endArrow=open;endFill=1;endSize=12;html=1;dashed=1;entryX=0;entryY=0.5;entryDx=0;entryDy=0;exitX=1;exitY=0.5;exitDx=0;exitDy=0;" edge="1" parent="1" source="Gcev7W_Unmqta7dmFVkb-11" target="Gcev7W_Unmqta7dmFVkb-28">
                    <mxGeometry width="160" relative="1" as="geometry">
                        <mxPoint x="630" y="730" as="sourcePoint"/>
                        <mxPoint x="720" y="730" as="targetPoint"/>
                    </mxGeometry>
                </mxCell>
                <mxCell id="Gcev7W_Unmqta7dmFVkb-41" value="" style="endArrow=open;endFill=1;endSize=12;html=1;dashed=1;entryX=0.5;entryY=1;entryDx=0;entryDy=0;exitX=1;exitY=0;exitDx=0;exitDy=0;" edge="1" parent="1" source="Gcev7W_Unmqta7dmFVkb-11" target="Gcev7W_Unmqta7dmFVkb-35">
                    <mxGeometry width="160" relative="1" as="geometry">
                        <mxPoint x="573.02" y="691.19" as="sourcePoint"/>
                        <mxPoint x="570" y="490" as="targetPoint"/>
                        <Array as="points"/>
                    </mxGeometry>
                </mxCell>
                <mxCell id="Gcev7W_Unmqta7dmFVkb-43" value="" style="endArrow=open;endFill=1;endSize=12;html=1;exitX=0;exitY=0;exitDx=0;exitDy=0;dashed=1;entryX=0.5;entryY=1;entryDx=0;entryDy=0;" edge="1" parent="1" source="Gcev7W_Unmqta7dmFVkb-11" target="Gcev7W_Unmqta7dmFVkb-12">
                    <mxGeometry width="160" relative="1" as="geometry">
                        <mxPoint x="360" y="725" as="sourcePoint"/>
                        <mxPoint x="490" y="725" as="targetPoint"/>
                    </mxGeometry>
                </mxCell>
                <mxCell id="Gcev7W_Unmqta7dmFVkb-44" value="" style="endArrow=open;endFill=1;endSize=12;html=1;exitX=0.5;exitY=0;exitDx=0;exitDy=0;dashed=1;entryX=0.564;entryY=1.012;entryDx=0;entryDy=0;entryPerimeter=0;" edge="1" parent="1" source="Gcev7W_Unmqta7dmFVkb-11" target="Gcev7W_Unmqta7dmFVkb-13">
                    <mxGeometry width="160" relative="1" as="geometry">
                        <mxPoint x="510.5025253169417" y="700.2512626584708" as="sourcePoint"/>
                        <mxPoint x="320" y="470" as="targetPoint"/>
                    </mxGeometry>
                </mxCell>
                <mxCell id="Gcev7W_Unmqta7dmFVkb-45" value="Exten" style="text;align=center;fontStyle=1;verticalAlign=middle;spacingLeft=3;spacingRight=3;strokeColor=none;rotatable=0;points=[[0,0.5],[1,0.5]];portConstraint=eastwest;" vertex="1" parent="1">
                    <mxGeometry x="590" y="390" width="80" height="26" as="geometry"/>
                </mxCell>
                <mxCell id="Gcev7W_Unmqta7dmFVkb-46" value="Includ" style="text;align=center;fontStyle=1;verticalAlign=middle;spacingLeft=3;spacingRight=3;strokeColor=none;rotatable=0;points=[[0,0.5],[1,0.5]];portConstraint=eastwest;" vertex="1" parent="1">
                    <mxGeometry x="440" y="446" width="80" height="26" as="geometry"/>
                </mxCell>
                <mxCell id="Gcev7W_Unmqta7dmFVkb-47" value="Includ" style="text;align=center;fontStyle=1;verticalAlign=middle;spacingLeft=3;spacingRight=3;strokeColor=none;rotatable=0;points=[[0,0.5],[1,0.5]];portConstraint=eastwest;" vertex="1" parent="1">
                    <mxGeometry x="370" y="685" width="80" height="26" as="geometry"/>
                </mxCell>
                <mxCell id="Gcev7W_Unmqta7dmFVkb-48" value="Includ" style="text;align=center;fontStyle=1;verticalAlign=middle;spacingLeft=3;spacingRight=3;strokeColor=none;rotatable=0;points=[[0,0.5],[1,0.5]];portConstraint=eastwest;" vertex="1" parent="1">
                    <mxGeometry x="240" y="314" width="80" height="26" as="geometry"/>
                </mxCell>
                <mxCell id="Gcev7W_Unmqta7dmFVkb-49" value="Includ" style="text;align=center;fontStyle=1;verticalAlign=middle;spacingLeft=3;spacingRight=3;strokeColor=none;rotatable=0;points=[[0,0.5],[1,0.5]];portConstraint=eastwest;" vertex="1" parent="1">
                    <mxGeometry x="240" y="-59" width="80" height="26" as="geometry"/>
                </mxCell>
                <mxCell id="Gcev7W_Unmqta7dmFVkb-50" value="Includ" style="text;align=center;fontStyle=1;verticalAlign=middle;spacingLeft=3;spacingRight=3;strokeColor=none;rotatable=0;points=[[0,0.5],[1,0.5]];portConstraint=eastwest;" vertex="1" parent="1">
                    <mxGeometry x="540" y="250" width="80" height="26" as="geometry"/>
                </mxCell>
                <mxCell id="Gcev7W_Unmqta7dmFVkb-51" value="Includ" style="text;align=center;fontStyle=1;verticalAlign=middle;spacingLeft=3;spacingRight=3;strokeColor=none;rotatable=0;points=[[0,0.5],[1,0.5]];portConstraint=eastwest;" vertex="1" parent="1">
                    <mxGeometry x="380" y="550" width="80" height="26" as="geometry"/>
                </mxCell>
                <mxCell id="Gcev7W_Unmqta7dmFVkb-52" value="Includ" style="text;align=center;fontStyle=1;verticalAlign=middle;spacingLeft=3;spacingRight=3;strokeColor=none;rotatable=0;points=[[0,0.5],[1,0.5]];portConstraint=eastwest;" vertex="1" parent="1">
                    <mxGeometry x="865" y="410" width="80" height="26" as="geometry"/>
                </mxCell>
                <mxCell id="Gcev7W_Unmqta7dmFVkb-53" value="Exten" style="text;align=center;fontStyle=1;verticalAlign=middle;spacingLeft=3;spacingRight=3;strokeColor=none;rotatable=0;points=[[0,0.5],[1,0.5]];portConstraint=eastwest;" vertex="1" parent="1">
                    <mxGeometry x="490" y="54" width="80" height="26" as="geometry"/>
                </mxCell>
                <mxCell id="Gcev7W_Unmqta7dmFVkb-54" value="Exten" style="text;align=center;fontStyle=1;verticalAlign=middle;spacingLeft=3;spacingRight=3;strokeColor=none;rotatable=0;points=[[0,0.5],[1,0.5]];portConstraint=eastwest;" vertex="1" parent="1">
                    <mxGeometry x="515" y="-126" width="80" height="26" as="geometry"/>
                </mxCell>
                <mxCell id="Gcev7W_Unmqta7dmFVkb-56" value="Exten" style="text;align=center;fontStyle=1;verticalAlign=middle;spacingLeft=3;spacingRight=3;strokeColor=none;rotatable=0;points=[[0,0.5],[1,0.5]];portConstraint=eastwest;" vertex="1" parent="1">
                    <mxGeometry x="630" y="685" width="80" height="26" as="geometry"/>
                </mxCell>
                <mxCell id="Gcev7W_Unmqta7dmFVkb-57" value="Exten" style="text;align=center;fontStyle=1;verticalAlign=middle;spacingLeft=3;spacingRight=3;strokeColor=none;rotatable=0;points=[[0,0.5],[1,0.5]];portConstraint=eastwest;" vertex="1" parent="1">
                    <mxGeometry x="610" y="750" width="80" height="26" as="geometry"/>
                </mxCell>
                <mxCell id="Gcev7W_Unmqta7dmFVkb-58" value="Exten" style="text;align=center;fontStyle=1;verticalAlign=middle;spacingLeft=3;spacingRight=3;strokeColor=none;rotatable=0;points=[[0,0.5],[1,0.5]];portConstraint=eastwest;" vertex="1" parent="1">
                    <mxGeometry x="520" y="776" width="80" height="26" as="geometry"/>
                </mxCell>
                <mxCell id="Gcev7W_Unmqta7dmFVkb-59" value="Exten" style="text;align=center;fontStyle=1;verticalAlign=middle;spacingLeft=3;spacingRight=3;strokeColor=none;rotatable=0;points=[[0,0.5],[1,0.5]];portConstraint=eastwest;" vertex="1" parent="1">
                    <mxGeometry x="905" y="600" width="80" height="26" as="geometry"/>
                </mxCell>
                <mxCell id="Gcev7W_Unmqta7dmFVkb-60" value="Includ" style="text;align=center;fontStyle=1;verticalAlign=middle;spacingLeft=3;spacingRight=3;strokeColor=none;rotatable=0;points=[[0,0.5],[1,0.5]];portConstraint=eastwest;" vertex="1" parent="1">
                    <mxGeometry x="505" y="-59" width="80" height="26" as="geometry"/>
                </mxCell>
                <mxCell id="uBAcjajxYX5B5QDxeFIi-1" value="Recuperer&lt;br&gt;ContraseÃ±a" style="ellipse;whiteSpace=wrap;html=1;" vertex="1" parent="1">
                    <mxGeometry x="310" y="42" width="90" height="50" as="geometry"/>
                </mxCell>
                <mxCell id="uBAcjajxYX5B5QDxeFIi-2" value="" style="endArrow=open;endFill=1;endSize=12;html=1;entryX=0;entryY=1;entryDx=0;entryDy=0;dashed=1;exitX=0.5;exitY=0;exitDx=0;exitDy=0;" edge="1" parent="1" source="Gcev7W_Unmqta7dmFVkb-8" target="uBAcjajxYX5B5QDxeFIi-1">
                    <mxGeometry width="160" relative="1" as="geometry">
                        <mxPoint x="270" y="270" as="sourcePoint"/>
                        <mxPoint x="270.5025253169417" y="410.25126265847075" as="targetPoint"/>
                    </mxGeometry>
                </mxCell>
                <mxCell id="uBAcjajxYX5B5QDxeFIi-3" value="Exten" style="text;align=center;fontStyle=1;verticalAlign=middle;spacingLeft=3;spacingRight=3;strokeColor=none;rotatable=0;points=[[0,0.5],[1,0.5]];portConstraint=eastwest;" vertex="1" parent="1">
                    <mxGeometry x="270" y="114" width="80" height="26" as="geometry"/>
                </mxCell>
                <mxCell id="uBAcjajxYX5B5QDxeFIi-5" value="Recuperer&lt;br&gt;ContraseÃ±a" style="ellipse;whiteSpace=wrap;html=1;" vertex="1" parent="1">
                    <mxGeometry x="245" y="520" width="90" height="50" as="geometry"/>
                </mxCell>
                <mxCell id="uBAcjajxYX5B5QDxeFIi-6" value="" style="endArrow=open;endFill=1;endSize=12;html=1;entryX=0.5;entryY=1;entryDx=0;entryDy=0;dashed=1;" edge="1" parent="1" source="Gcev7W_Unmqta7dmFVkb-9" target="uBAcjajxYX5B5QDxeFIi-5">
                    <mxGeometry width="160" relative="1" as="geometry">
                        <mxPoint x="235" y="685" as="sourcePoint"/>
                        <mxPoint x="298.1801948466052" y="579.677669529664" as="targetPoint"/>
                    </mxGeometry>
                </mxCell>
                <mxCell id="uBAcjajxYX5B5QDxeFIi-7" value="Exten" style="text;align=center;fontStyle=1;verticalAlign=middle;spacingLeft=3;spacingRight=3;strokeColor=none;rotatable=0;points=[[0,0.5],[1,0.5]];portConstraint=eastwest;" vertex="1" parent="1">
                    <mxGeometry x="245" y="609" width="80" height="26" as="geometry"/>
                </mxCell>
            </root>
        </mxGraphModel>
    </diagram>
    <diagram id="chxNoCqROdhKDmmhXRaZ" name="PÃ¡gina-2">
        <mxGraphModel dx="1788" dy="798" grid="1" gridSize="10" guides="1" tooltips="1" connect="1" arrows="1" fold="1" page="1" pageScale="1" pageWidth="1200" pageHeight="800" math="0" shadow="0">
            <root>
                <mxCell id="0"/>
                <mxCell id="1" parent="0"/>
                <mxCell id="CqRFg44fMzQwsLSB5N1B-1" value="&lt;p style=&quot;margin:0px;margin-top:4px;text-align:center;&quot;&gt;&lt;i&gt;ADMINISTRADORES&lt;/i&gt;&lt;/p&gt;&lt;hr size=&quot;1&quot;&gt;&lt;p style=&quot;margin:0px;margin-left:4px;&quot;&gt;- nombre&amp;nbsp; &amp;nbsp;&lt;span style=&quot;white-space: pre;&quot;&gt;&#9;&lt;/span&gt;&lt;span style=&quot;white-space: pre;&quot;&gt;&#9;&lt;/span&gt;Varchar(30)&lt;br&gt;- documento&lt;span style=&quot;white-space: pre;&quot;&gt;&#9;&lt;/span&gt;&lt;span style=&quot;white-space: pre;&quot;&gt;&#9;&lt;/span&gt;int( )&lt;/p&gt;&lt;p style=&quot;margin:0px;margin-left:4px;&quot;&gt;- edad&lt;span style=&quot;white-space: pre;&quot;&gt;&#9;&lt;/span&gt;&lt;span style=&quot;white-space: pre;&quot;&gt;&#9;&lt;/span&gt;&lt;span style=&quot;white-space: pre;&quot;&gt;&#9;&lt;/span&gt;int( )&lt;/p&gt;&lt;hr size=&quot;1&quot;&gt;&lt;p style=&quot;margin:0px;margin-left:4px;&quot;&gt;+ Agregar&lt;/p&gt;&lt;p style=&quot;margin:0px;margin-left:4px;&quot;&gt;+ modificar&lt;br&gt;+ eliminar&lt;/p&gt;&lt;p style=&quot;margin:0px;margin-left:4px;&quot;&gt;+ crear_cursos&lt;/p&gt;&lt;p style=&quot;margin:0px;margin-left:4px;&quot;&gt;+ asignar_cusos&lt;/p&gt;&lt;p style=&quot;margin:0px;margin-left:4px;&quot;&gt;+ crear_profesores&lt;/p&gt;&lt;p style=&quot;margin:0px;margin-left:4px;&quot;&gt;+ asignar_profesores&lt;/p&gt;" style="verticalAlign=top;align=left;overflow=fill;fontSize=12;fontFamily=Helvetica;html=1;" vertex="1" parent="1">
                    <mxGeometry x="140" y="290" width="260" height="200" as="geometry"/>
                </mxCell>
                <mxCell id="QXZ4NXRbDlN5mXsIh4Lq-1" value="&lt;p style=&quot;margin:0px;margin-top:4px;text-align:center;&quot;&gt;&lt;i&gt;ESTUDIANTES&lt;/i&gt;&lt;/p&gt;&lt;hr size=&quot;1&quot;&gt;&lt;p style=&quot;margin:0px;margin-left:4px;&quot;&gt;- nombre_estudiante&lt;span style=&quot;white-space: pre;&quot;&gt;&#9;&lt;/span&gt;varchar(30)&lt;/p&gt;&lt;p style=&quot;margin:0px;margin-left:4px;&quot;&gt;- numero_documento&lt;span style=&quot;white-space: pre;&quot;&gt;&#9;&lt;/span&gt;int( )&lt;br&gt;- edad&lt;span style=&quot;white-space: pre;&quot;&gt;&#9;&lt;/span&gt;&lt;span style=&quot;white-space: pre;&quot;&gt;&#9;&lt;/span&gt;&lt;span style=&quot;white-space: pre;&quot;&gt;&#9;&lt;/span&gt;&lt;span style=&quot;white-space: pre;&quot;&gt;&#9;&lt;/span&gt;int( )&lt;/p&gt;&lt;p style=&quot;margin:0px;margin-left:4px;&quot;&gt;- curso&lt;span style=&quot;white-space: pre;&quot;&gt;&#9;&lt;/span&gt;&lt;span style=&quot;white-space: pre;&quot;&gt;&#9;&lt;/span&gt;&lt;span style=&quot;white-space: pre;&quot;&gt;&#9;&lt;/span&gt;&lt;span style=&quot;white-space: pre;&quot;&gt;&#9;&lt;/span&gt;vachar(50)&lt;/p&gt;&lt;p style=&quot;margin:0px;margin-left:4px;&quot;&gt;- profesor&lt;span style=&quot;white-space: pre;&quot;&gt;&#9;&lt;/span&gt;&lt;span style=&quot;white-space: pre;&quot;&gt;&#9;&lt;/span&gt;&lt;span style=&quot;white-space: pre;&quot;&gt;&#9;&lt;/span&gt;&lt;span style=&quot;white-space: pre;&quot;&gt;&#9;&lt;/span&gt;vachar(30)&lt;/p&gt;&lt;hr size=&quot;1&quot;&gt;&lt;p style=&quot;margin:0px;margin-left:4px;&quot;&gt;+&amp;nbsp; verificar_usuario&lt;br&gt;+&amp;nbsp; verificar_contraseÃ±a&lt;/p&gt;&lt;p style=&quot;margin:0px;margin-left:4px;&quot;&gt;+ actualizar_datos(nombre,edad,documento)&lt;/p&gt;&lt;p style=&quot;margin:0px;margin-left:4px;&quot;&gt;+ cambiar_contraseÃ±a&lt;/p&gt;" style="verticalAlign=top;align=left;overflow=fill;fontSize=12;fontFamily=Helvetica;html=1;" vertex="1" parent="1">
                    <mxGeometry x="450" y="20" width="260" height="190" as="geometry"/>
                </mxCell>
                <mxCell id="QXZ4NXRbDlN5mXsIh4Lq-2" value="&lt;p style=&quot;margin:0px;margin-top:4px;text-align:center;&quot;&gt;&lt;i&gt;PROFESORES&lt;/i&gt;&lt;/p&gt;&lt;hr size=&quot;1&quot;&gt;&lt;p style=&quot;margin:0px;margin-left:4px;&quot;&gt;- nombre&lt;br&gt;- documento&lt;/p&gt;&lt;p style=&quot;margin:0px;margin-left:4px;&quot;&gt;- edad&lt;/p&gt;&lt;p style=&quot;margin:0px;margin-left:4px;&quot;&gt;- curso&lt;/p&gt;&lt;p style=&quot;margin:0px;margin-left:4px;&quot;&gt;- notas&lt;/p&gt;&lt;hr size=&quot;1&quot;&gt;&lt;p style=&quot;margin:0px;margin-left:4px;&quot;&gt;+ agregar&lt;br&gt;+ modificar notas&lt;/p&gt;&lt;p style=&quot;margin:0px;margin-left:4px;&quot;&gt;+ cambiar_contraseÃ±a&lt;/p&gt;&lt;p style=&quot;margin:0px;margin-left:4px;&quot;&gt;+actualizar_datos&lt;/p&gt;&lt;p style=&quot;margin:0px;margin-left:4px;&quot;&gt;+ ver_cursos&lt;/p&gt;" style="verticalAlign=top;align=left;overflow=fill;fontSize=12;fontFamily=Helvetica;html=1;" vertex="1" parent="1">
                    <mxGeometry x="470" y="570" width="260" height="230" as="geometry"/>
                </mxCell>
                <mxCell id="QXZ4NXRbDlN5mXsIh4Lq-3" value="&lt;p style=&quot;margin:0px;margin-top:4px;text-align:center;&quot;&gt;&lt;i&gt;CURSOS&lt;/i&gt;&lt;/p&gt;&lt;hr size=&quot;1&quot;&gt;&lt;p style=&quot;margin:0px;margin-left:4px;&quot;&gt;- Nombre_curso&lt;br&gt;- fecha_creacion&lt;/p&gt;&lt;p style=&quot;margin:0px;margin-left:4px;&quot;&gt;- capacidad&lt;/p&gt;&lt;hr size=&quot;1&quot;&gt;&lt;p style=&quot;margin:0px;margin-left:4px;&quot;&gt;+ modificar&lt;br&gt;+ craer&lt;/p&gt;&lt;p style=&quot;margin:0px;margin-left:4px;&quot;&gt;+ borrar&lt;/p&gt;&lt;p style=&quot;margin:0px;margin-left:4px;&quot;&gt;+ ver_integrantes&lt;/p&gt;" style="verticalAlign=top;align=left;overflow=fill;fontSize=12;fontFamily=Helvetica;html=1;" vertex="1" parent="1">
                    <mxGeometry x="820" y="380" width="260" height="160" as="geometry"/>
                </mxCell>
                <mxCell id="QXZ4NXRbDlN5mXsIh4Lq-4" value="&lt;p style=&quot;margin:0px;margin-top:4px;text-align:center;&quot;&gt;&lt;i&gt;NOTAS&lt;/i&gt;&lt;/p&gt;&lt;hr size=&quot;1&quot;&gt;&lt;p style=&quot;margin:0px;margin-left:4px;&quot;&gt;- nombre_estudiante&lt;span style=&quot;white-space: pre;&quot;&gt;&#9;&lt;/span&gt;varchar(30)&lt;br&gt;- nota&lt;span style=&quot;white-space: pre;&quot;&gt;&#9;&lt;/span&gt;&lt;span style=&quot;white-space: pre;&quot;&gt;&#9;&lt;/span&gt;&lt;span style=&quot;white-space: pre;&quot;&gt;&#9;&lt;/span&gt;&lt;span style=&quot;white-space: pre;&quot;&gt;&#9;&lt;/span&gt;int( )&lt;/p&gt;&lt;p style=&quot;margin:0px;margin-left:4px;&quot;&gt;- curso&lt;span style=&quot;white-space: pre;&quot;&gt;&#9;&lt;/span&gt;&lt;span style=&quot;white-space: pre;&quot;&gt;&#9;&lt;/span&gt;&lt;span style=&quot;white-space: pre;&quot;&gt;&#9;&lt;/span&gt;&lt;span style=&quot;white-space: pre;&quot;&gt;&#9;&lt;/span&gt;varchar( )&lt;/p&gt;&lt;p style=&quot;margin:0px;margin-left:4px;&quot;&gt;- profesor&lt;span style=&quot;white-space: pre;&quot;&gt;&#9;&lt;/span&gt;&lt;span style=&quot;white-space: pre;&quot;&gt;&#9;&lt;/span&gt;&lt;span style=&quot;white-space: pre;&quot;&gt;&#9;&lt;/span&gt;&lt;span style=&quot;white-space: pre;&quot;&gt;&#9;&lt;/span&gt;varchar( )&lt;/p&gt;&lt;hr size=&quot;1&quot;&gt;&lt;p style=&quot;margin:0px;margin-left:4px;&quot;&gt;+ ver_notas&lt;/p&gt;&lt;p style=&quot;margin:0px;margin-left:4px;&quot;&gt;+ imprimir_notas&lt;/p&gt;&lt;p style=&quot;margin:0px;margin-left:4px;&quot;&gt;&lt;br&gt;&lt;/p&gt;&lt;p style=&quot;margin:0px;margin-left:4px;&quot;&gt;&lt;br&gt;&lt;/p&gt;" style="verticalAlign=top;align=left;overflow=fill;fontSize=12;fontFamily=Helvetica;html=1;" vertex="1" parent="1">
                    <mxGeometry x="870" y="60" width="260" height="160" as="geometry"/>
                </mxCell>
                <mxCell id="QXZ4NXRbDlN5mXsIh4Lq-12" value="" style="html=1;verticalAlign=bottom;endArrow=block;exitX=0.366;exitY=0.998;exitDx=0;exitDy=0;exitPerimeter=0;entryX=0.005;entryY=0.296;entryDx=0;entryDy=0;entryPerimeter=0;" edge="1" parent="1" source="CqRFg44fMzQwsLSB5N1B-1" target="QXZ4NXRbDlN5mXsIh4Lq-2">
                    <mxGeometry width="80" relative="1" as="geometry">
                        <mxPoint x="620" y="510" as="sourcePoint"/>
                        <mxPoint x="700" y="510" as="targetPoint"/>
                        <Array as="points">
                            <mxPoint x="235" y="640"/>
                        </Array>
                    </mxGeometry>
                </mxCell>
                <mxCell id="QXZ4NXRbDlN5mXsIh4Lq-13" value="" style="html=1;verticalAlign=bottom;endArrow=block;entryX=0;entryY=0.5;entryDx=0;entryDy=0;exitX=0.5;exitY=0;exitDx=0;exitDy=0;" edge="1" parent="1" source="CqRFg44fMzQwsLSB5N1B-1" target="QXZ4NXRbDlN5mXsIh4Lq-1">
                    <mxGeometry width="80" relative="1" as="geometry">
                        <mxPoint x="528.7" y="280.96000000000004" as="sourcePoint"/>
                        <mxPoint x="520" y="499.03999999999996" as="targetPoint"/>
                        <Array as="points">
                            <mxPoint x="270" y="115"/>
                        </Array>
                    </mxGeometry>
                </mxCell>
                <mxCell id="QXZ4NXRbDlN5mXsIh4Lq-14" value="" style="html=1;verticalAlign=bottom;endArrow=block;exitX=0.997;exitY=0.667;exitDx=0;exitDy=0;exitPerimeter=0;entryX=0;entryY=0.25;entryDx=0;entryDy=0;" edge="1" parent="1" source="CqRFg44fMzQwsLSB5N1B-1" target="QXZ4NXRbDlN5mXsIh4Lq-3">
                    <mxGeometry width="80" relative="1" as="geometry">
                        <mxPoint x="255.16000000000008" y="509.5999999999999" as="sourcePoint"/>
                        <mxPoint x="491.29999999999995" y="658.0799999999999" as="targetPoint"/>
                        <Array as="points"/>
                    </mxGeometry>
                </mxCell>
                <mxCell id="QXZ4NXRbDlN5mXsIh4Lq-15" value="" style="html=1;verticalAlign=bottom;endArrow=block;exitX=1;exitY=0.25;exitDx=0;exitDy=0;entryX=0.5;entryY=1;entryDx=0;entryDy=0;" edge="1" parent="1" source="QXZ4NXRbDlN5mXsIh4Lq-2" target="QXZ4NXRbDlN5mXsIh4Lq-3">
                    <mxGeometry width="80" relative="1" as="geometry">
                        <mxPoint x="413.6399999999999" y="432" as="sourcePoint"/>
                        <mxPoint x="870" y="430" as="targetPoint"/>
                        <Array as="points">
                            <mxPoint x="950" y="628"/>
                        </Array>
                    </mxGeometry>
                </mxCell>
                <mxCell id="QXZ4NXRbDlN5mXsIh4Lq-16" value="" style="html=1;verticalAlign=bottom;endArrow=block;exitX=1.007;exitY=0.433;exitDx=0;exitDy=0;entryX=0;entryY=0.25;entryDx=0;entryDy=0;exitPerimeter=0;" edge="1" parent="1" source="QXZ4NXRbDlN5mXsIh4Lq-1" target="QXZ4NXRbDlN5mXsIh4Lq-4">
                    <mxGeometry width="80" relative="1" as="geometry">
                        <mxPoint x="413.6399999999999" y="432" as="sourcePoint"/>
                        <mxPoint x="870" y="430" as="targetPoint"/>
                        <Array as="points"/>
                    </mxGeometry>
                </mxCell>
                <mxCell id="QXZ4NXRbDlN5mXsIh4Lq-17" value="" style="html=1;verticalAlign=bottom;endArrow=block;exitX=0.547;exitY=1.009;exitDx=0;exitDy=0;entryX=0.5;entryY=0;entryDx=0;entryDy=0;exitPerimeter=0;" edge="1" parent="1" source="QXZ4NXRbDlN5mXsIh4Lq-1" target="QXZ4NXRbDlN5mXsIh4Lq-3">
                    <mxGeometry width="80" relative="1" as="geometry">
                        <mxPoint x="721.8199999999999" y="112.26999999999998" as="sourcePoint"/>
                        <mxPoint x="880" y="110" as="targetPoint"/>
                        <Array as="points">
                            <mxPoint x="590" y="280"/>
                            <mxPoint x="950" y="280"/>
                        </Array>
                    </mxGeometry>
                </mxCell>
                <mxCell id="QXZ4NXRbDlN5mXsIh4Lq-18" value="" style="html=1;verticalAlign=bottom;endArrow=block;exitX=1;exitY=0.25;exitDx=0;exitDy=0;entryX=0.538;entryY=1;entryDx=0;entryDy=0;entryPerimeter=0;" edge="1" parent="1" target="QXZ4NXRbDlN5mXsIh4Lq-4">
                    <mxGeometry width="80" relative="1" as="geometry">
                        <mxPoint x="730" y="677.5" as="sourcePoint"/>
                        <mxPoint x="950" y="590" as="targetPoint"/>
                        <Array as="points">
                            <mxPoint x="1130" y="678"/>
                            <mxPoint x="1130" y="280"/>
                            <mxPoint x="1010" y="280"/>
                        </Array>
                    </mxGeometry>
                </mxCell>
                <mxCell id="QXZ4NXRbDlN5mXsIh4Lq-19" value="1..N" style="text;align=center;fontStyle=1;verticalAlign=middle;spacingLeft=3;spacingRight=3;strokeColor=none;rotatable=0;points=[[0,0.5],[1,0.5]];portConstraint=eastwest;" vertex="1" parent="1">
                    <mxGeometry x="210" y="500" width="80" height="26" as="geometry"/>
                </mxCell>
                <mxCell id="QXZ4NXRbDlN5mXsIh4Lq-20" value="1..N" style="text;align=center;fontStyle=1;verticalAlign=middle;spacingLeft=3;spacingRight=3;strokeColor=none;rotatable=0;points=[[0,0.5],[1,0.5]];portConstraint=eastwest;" vertex="1" parent="1">
                    <mxGeometry x="210" y="264" width="80" height="26" as="geometry"/>
                </mxCell>
                <mxCell id="QXZ4NXRbDlN5mXsIh4Lq-21" value="1..N" style="text;align=center;fontStyle=1;verticalAlign=middle;spacingLeft=3;spacingRight=3;strokeColor=none;rotatable=0;points=[[0,0.5],[1,0.5]];portConstraint=eastwest;" vertex="1" parent="1">
                    <mxGeometry x="380" y="400" width="80" height="26" as="geometry"/>
                </mxCell>
                <mxCell id="QXZ4NXRbDlN5mXsIh4Lq-22" value="" style="html=1;verticalAlign=bottom;endArrow=block;exitX=0.25;exitY=0;exitDx=0;exitDy=0;entryX=0.337;entryY=1.009;entryDx=0;entryDy=0;entryPerimeter=0;" edge="1" parent="1" source="QXZ4NXRbDlN5mXsIh4Lq-2" target="QXZ4NXRbDlN5mXsIh4Lq-1">
                    <mxGeometry width="80" relative="1" as="geometry">
                        <mxPoint x="409.22" y="433.4000000000001" as="sourcePoint"/>
                        <mxPoint x="830" y="430" as="targetPoint"/>
                        <Array as="points"/>
                    </mxGeometry>
                </mxCell>
                <mxCell id="QXZ4NXRbDlN5mXsIh4Lq-23" value="1..N" style="text;align=center;fontStyle=1;verticalAlign=middle;spacingLeft=3;spacingRight=3;strokeColor=none;rotatable=0;points=[[0,0.5],[1,0.5]];portConstraint=eastwest;" vertex="1" parent="1">
                    <mxGeometry x="480" y="540" width="80" height="26" as="geometry"/>
                </mxCell>
                <mxCell id="QXZ4NXRbDlN5mXsIh4Lq-25" value="1..N" style="text;align=center;fontStyle=1;verticalAlign=middle;spacingLeft=3;spacingRight=3;strokeColor=none;rotatable=0;points=[[0,0.5],[1,0.5]];portConstraint=eastwest;" vertex="1" parent="1">
                    <mxGeometry x="690" y="80" width="80" height="26" as="geometry"/>
                </mxCell>
                <mxCell id="QXZ4NXRbDlN5mXsIh4Lq-26" value="1..N" style="text;align=center;fontStyle=1;verticalAlign=middle;spacingLeft=3;spacingRight=3;strokeColor=none;rotatable=0;points=[[0,0.5],[1,0.5]];portConstraint=eastwest;" vertex="1" parent="1">
                    <mxGeometry x="570" y="210" width="80" height="26" as="geometry"/>
                </mxCell>
                <mxCell id="QXZ4NXRbDlN5mXsIh4Lq-27" value="1..1" style="text;align=center;fontStyle=1;verticalAlign=middle;spacingLeft=3;spacingRight=3;strokeColor=none;rotatable=0;points=[[0,0.5],[1,0.5]];portConstraint=eastwest;" vertex="1" parent="1">
                    <mxGeometry x="710" y="600" width="80" height="26" as="geometry"/>
                </mxCell>
                <mxCell id="QXZ4NXRbDlN5mXsIh4Lq-28" value="1..N" style="text;align=center;fontStyle=1;verticalAlign=middle;spacingLeft=3;spacingRight=3;strokeColor=none;rotatable=0;points=[[0,0.5],[1,0.5]];portConstraint=eastwest;" vertex="1" parent="1">
                    <mxGeometry x="710" y="650" width="80" height="26" as="geometry"/>
                </mxCell>
            </root>
        </mxGraphModel>
    </diagram>
    <diagram id="Z5Ri4fiEmCOSQMzNhDk8" name="PÃ¡gina-3">
        <mxGraphModel dx="2167" dy="1121" grid="1" gridSize="10" guides="1" tooltips="1" connect="1" arrows="1" fold="1" page="1" pageScale="1" pageWidth="1200" pageHeight="800" math="0" shadow="0">
            <root>
                <mxCell id="0"/>
                <mxCell id="1" parent="0"/>
                <mxCell id="Gr-IEQoAgICSfoBArwmw-1" value="PK" style="text;html=1;strokeColor=none;fillColor=none;align=center;verticalAlign=middle;whiteSpace=wrap;rounded=0;fontSize=14;" parent="1" vertex="1">
                    <mxGeometry x="10" y="100" width="60" height="30" as="geometry"/>
                </mxCell>
                <mxCell id="Gr-IEQoAgICSfoBArwmw-3" value="PK" style="text;html=1;strokeColor=none;fillColor=none;align=center;verticalAlign=middle;whiteSpace=wrap;rounded=0;fontSize=14;" parent="1" vertex="1">
                    <mxGeometry x="1140" y="90" width="60" height="30" as="geometry"/>
                </mxCell>
            </root>
        </mxGraphModel>
    </diagram>
</mxfile>